<svg width="30" height="30" viewBox="0 0 30 30" fill="none" xmlns="http://www.w3.org/2000/svg">
<path d="M9.58619 18.3408C4.17119 19.1066 0.628437 20.9366 0.625 22.9698C0.625 25.7312 7.06094 27.9698 15 27.9698C22.9391 27.9698 29.375 25.7312 29.375 22.9698C29.3681 21.0607 26.2364 19.3198 21.3037 18.4823L22.5 22.9698C20.176 24.1594 17.6104 24.8008 15 24.8448C12.5858 24.817 10.219 24.1715 8.125 22.9698L9.58619 18.3408Z" fill="#B8FBF5"/>
<path d="M15 28.4384C6.67663 28.4384 0.15625 26.0364 0.15625 22.9697C0.1605 20.6439 3.74875 18.6926 9.52025 17.8766C9.59871 17.8657 9.67864 17.8748 9.75266 17.903C9.82669 17.9312 9.89245 17.9775 9.94388 18.0377C9.99513 18.0981 10.0302 18.1705 10.0458 18.2481C10.0614 18.3257 10.0569 18.406 10.0329 18.4815L8.68469 22.7537C10.6306 23.7894 12.7958 24.3456 15 24.3759H15.0013C17.407 24.3187 19.7746 23.7619 21.9538 22.7408L20.8508 18.6033C20.8305 18.5274 20.8295 18.4477 20.8481 18.3714C20.8667 18.295 20.9041 18.2246 20.957 18.1666C21.0099 18.1085 21.0766 18.0647 21.1509 18.0392C21.2251 18.0136 21.3046 18.0072 21.3821 18.0204C26.6733 18.9182 29.8361 20.7679 29.844 22.9682C29.8438 26.0364 23.3234 28.4384 15 28.4384ZM8.9125 18.9187C4.275 19.6875 1.09681 21.3165 1.09375 22.9706C1.09375 25.1581 6.68125 27.5009 15 27.5009C23.3188 27.5009 28.9062 25.1581 28.9062 22.9697C28.9007 21.4282 26.1346 19.8959 21.947 19.0759L22.9529 22.8485C22.9788 22.9457 22.9727 23.0487 22.9355 23.1423C22.8984 23.2358 22.8322 23.3149 22.7466 23.3679C20.3481 24.6015 17.698 25.2671 15.0013 25.3134H15C12.4991 25.2817 10.0476 24.612 7.87781 23.3679C7.78939 23.313 7.72177 23.2301 7.68564 23.1325C7.6495 23.0349 7.6469 22.928 7.67825 22.8287L8.9125 18.9187Z" fill="#CAB3F4"/>
<path d="M16.2676 1.87625C16.2522 1.87544 16.2367 1.87544 16.2213 1.87625C16.1526 1.88047 16.0857 1.89975 16.0254 1.93271C15.965 1.96568 15.9126 2.01152 15.872 2.06699C15.8313 2.12247 15.8034 2.18621 15.7901 2.2537C15.7768 2.32118 15.7786 2.39076 15.7952 2.4575L16.9646 7.1375L11.6155 10.7044C11.5263 10.7635 11.46 10.8514 11.4276 10.9534L9.1424 18.1885C9.04163 18.2473 8.9664 18.3415 8.93142 18.4528C8.89643 18.5641 8.9042 18.6844 8.95321 18.7903L7.67752 22.8284C7.64614 22.9277 7.64877 23.0347 7.68499 23.1325C7.7212 23.2302 7.78895 23.313 7.87752 23.3679C10.0433 24.6213 12.4971 25.2914 14.9993 25.3125C17.6993 25.2853 20.3544 24.619 22.7471 23.3679C22.8329 23.3149 22.8992 23.2357 22.9364 23.142C22.9735 23.0483 22.9795 22.9452 22.9534 22.8478L20.4913 13.6182L22.3138 8.75856C22.344 8.67817 22.3516 8.59103 22.3356 8.50663C22.3197 8.42224 22.2809 8.34384 22.2235 8.28L16.5985 2.03C16.5565 1.98334 16.5056 1.94557 16.4488 1.91895C16.3919 1.89232 16.3304 1.87738 16.2676 1.875V1.87625Z" fill="#CAB3F4"/>
<path d="M17.1612 4.05881L21.3362 8.69749L19.5612 13.4301C19.5267 13.5215 19.5216 13.6214 19.5466 13.7158L20.7466 18.2177C19.6653 18.4612 18.5704 18.6398 17.4678 18.7524C17.4257 18.7554 17.3843 18.7641 17.3445 18.7781V18.595C17.3445 18.4707 17.2951 18.3514 17.2072 18.2635C17.1193 18.1756 17.0001 18.1262 16.8758 18.1262H13.1258C13.0014 18.1262 12.8822 18.1756 12.7943 18.2635C12.7064 18.3514 12.657 18.4707 12.657 18.595V18.7171C11.792 18.6487 10.9343 18.5065 10.0935 18.2921L12.2724 11.3939L17.7606 7.73562C17.8409 7.68183 17.9027 7.6045 17.9374 7.51424C17.972 7.42397 17.978 7.32519 17.9543 7.23143L17.1612 4.05881Z" fill="#82A9F9"/>
<path d="M13.5944 19.0638H16.4069V21.8763H13.5944V19.0638Z" fill="#FBE0D8"/>
<path d="M20.9894 19.126L21.4105 20.7056C20.1254 21.0002 18.8172 21.1828 17.5006 21.2513C17.4471 21.2525 17.3943 21.2628 17.3443 21.2818V19.6608C17.4103 19.6846 17.4808 19.6934 17.5506 19.6864C18.7071 19.569 19.8555 19.3818 20.9894 19.126ZM9.81139 19.1883C10.744 19.4289 11.6963 19.5858 12.6568 19.657V21.2366C11.5286 21.204 10.408 21.0414 9.31702 20.7519L9.81139 19.1883Z" fill="#5FBE7A"/>
<path d="M21.6522 21.6137L21.9403 22.6928C19.7731 23.741 17.4072 24.3149 15.0006 24.3761C12.7956 24.3445 10.6318 23.7737 8.69812 22.7136L9.035 21.6479C10.2176 21.964 11.4331 22.1406 12.6568 22.1741V22.3449C12.6568 22.4692 12.7062 22.5885 12.7941 22.6764C12.882 22.7643 13.0012 22.8137 13.1256 22.8137H16.8756C16.9999 22.8137 17.1191 22.7643 17.207 22.6764C17.2949 22.5885 17.3443 22.4692 17.3443 22.3449V22.1581C17.3993 22.179 17.4576 22.1894 17.5164 22.1887C18.9093 22.12 20.2934 21.9276 21.6522 21.6137Z" fill="#82A9F9"/>
</svg>
